<svg width="128" height="128" viewBox="0 0 128 128" xmlns="http://www.w3.org/2000/svg">
  <!-- Background layer with cutout -->
  <defs>
    <!-- Gradient for background -->
    <linearGradient id="bgGradient" x1="0%" y1="0%" x2="100%" y2="100%">
      <stop offset="0%" style="stop-color:#e3f2fd;stop-opacity:1" />
      <stop offset="100%" style="stop-color:#bbdefb;stop-opacity:1" />
    </linearGradient>
    
    <!-- Gradient for foreground -->
    <linearGradient id="fgGradient" x1="0%" y1="0%" x2="100%" y2="100%">
      <stop offset="0%" style="stop-color:#2196F3;stop-opacity:1" />
      <stop offset="100%" style="stop-color:#1976D2;stop-opacity:1" />
    </linearGradient>
    
    <!-- Dotted pattern for selection -->
    <pattern id="dots" x="0" y="0" width="4" height="4" patternUnits="userSpaceOnUse">
      <circle cx="2" cy="2" r="0.5" fill="#333" opacity="0.3"/>
    </pattern>
  </defs>
  
  <!-- Main background rectangle -->
  <rect x="16" y="16" width="96" height="96" rx="8" fill="url(#bgGradient)" />
  
  <!-- Checkered pattern representing transparency -->
  <defs>
    <pattern id="checkerboard" x="0" y="0" width="16" height="16" patternUnits="userSpaceOnUse">
      <rect x="0" y="0" width="8" height="8" fill="#f0f0f0"/>
      <rect x="8" y="8" width="8" height="8" fill="#f0f0f0"/>
      <rect x="0" y="8" width="8" height="8" fill="#ffffff"/>
      <rect x="8" y="0" width="8" height="8" fill="#ffffff"/>
    </pattern>
  </defs>
  
  <!-- Transparent area (checkered) -->
  <path d="M 40 32 L 88 32 L 88 56 L 96 64 L 96 96 L 40 96 Z" fill="url(#checkerboard)" opacity="0.8"/>
  
  <!-- Person silhouette -->
  <g transform="translate(64, 64)">
    <!-- Head -->
    <circle cx="0" cy="-12" r="10" fill="url(#fgGradient)"/>
    <!-- Body -->
    <path d="M -15 5 C -15 -5, -10 -8, 0 -8 C 10 -8, 15 -5, 15 5 L 15 25 C 15 28, 12 30, 0 30 C -12 30, -15 28, -15 25 Z" fill="url(#fgGradient)"/>
  </g>
  
  <!-- Selection outline (marching ants effect) -->
  <path d="M 40 32 L 88 32 L 88 56 L 96 64 L 96 96 L 40 96 Z" fill="none" stroke="url(#dots)" stroke-width="2" stroke-dasharray="4,4" opacity="0.8"/>
  
  <!-- Magic wand icon -->
  <g transform="translate(85, 45) rotate(-45)">
    <!-- Wand handle -->
    <rect x="-2" y="0" width="4" height="20" fill="#333" rx="2"/>
    <!-- Wand tip -->
    <rect x="-3" y="-8" width="6" height="10" fill="#ffd700" rx="1"/>
    <!-- Sparkles -->
    <g fill="#ffd700">
      <circle cx="-8" cy="-6" r="1.5" opacity="0.8"/>
      <circle cx="8" cy="-4" r="1" opacity="0.6"/>
      <circle cx="-6" cy="-12" r="1" opacity="0.7"/>
    </g>
  </g>
  
  <!-- Corner fold effect -->
  <path d="M 88 32 L 88 56 L 96 64 Z" fill="#ffffff" opacity="0.5"/>
  <path d="M 88 56 L 96 56 L 96 64 Z" fill="#000000" opacity="0.1"/>
</svg>